<svg width="390" height="160" viewBox="0 0 390 160" fill="none" xmlns="http://www.w3.org/2000/svg">
<path d="M61.4135 50H51.125C50.5727 50 50.125 50.4477 50.125 51V70.387L61.4135 50Z" fill="#35293B"/>
<path d="M50.125 76.6227C50.1575 76.6241 50.1903 76.6249 50.2234 76.6249H65.9092C67.137 76.6249 68.1017 77.6738 67.997 78.895L66.6397 94.7247C66.4468 96.9741 69.4673 97.8909 70.5614 95.915L86.8605 66.4787C87.6324 65.0846 86.6223 63.3751 85.0266 63.3751H69.3408C68.113 63.3751 67.1483 62.3262 67.253 61.1051L68.2052 50H84.0341C98.6203 50 105.159 68.3465 93.8778 77.6212L85.059 84.8716C84.4814 85.3465 84.3677 86.1883 84.7984 86.8003L100.016 108.424C100.483 109.087 100.009 110 99.1985 110H51.125C50.5727 110 50.125 109.552 50.125 109V76.6227Z" fill="#35293B"/>
<path d="M221.481 82.4805V97.6416H229.855V80.6196C229.855 78.6128 229.418 76.8613 228.542 75.3652C227.703 73.8325 226.499 72.6465 224.93 71.8076C223.36 70.9316 221.536 70.4937 219.456 70.4937C217.413 70.4937 215.606 70.9316 214.038 71.8076C213.621 72.0303 213.229 72.2793 212.861 72.5537C212.662 72.7017 212.471 72.8574 212.286 73.0205V59H203.912V97.6416H212.286V82.4805C212.286 81.5684 212.487 80.7656 212.889 80.0723C213.29 79.3423 213.837 78.7949 214.53 78.4302C215.224 78.0288 216.026 77.8281 216.938 77.8281C218.252 77.8281 219.329 78.2661 220.168 79.1416C221.044 79.981 221.481 81.0938 221.481 82.4805Z" fill="#35293B"/>
<path fill-rule="evenodd" clip-rule="evenodd" d="M128.439 81.7144V97.6416H119.847V59H135.609C138.164 59 140.408 59.4927 142.342 60.4775C144.275 61.4263 145.79 62.7583 146.885 64.4731C147.979 66.188 148.526 68.1587 148.526 70.3843C148.526 72.6465 147.979 74.6353 146.885 76.3501C145.79 78.0288 144.258 79.3423 142.287 80.291C141.188 80.8203 139.981 81.2021 138.666 81.436L151.045 97.6416H140.864L129.339 81.7144H128.439ZM128.439 75.3652H134.57C136.285 75.3652 137.599 74.9272 138.511 74.0513C139.459 73.1758 139.934 71.9897 139.934 70.4937C139.934 69.1074 139.478 67.958 138.565 67.0459C137.653 66.1333 136.34 65.6772 134.625 65.6772H128.439V75.3652Z" fill="#35293B"/>
<path fill-rule="evenodd" clip-rule="evenodd" d="M156.571 96.4922C158.834 97.6597 161.406 98.2437 164.288 98.2437C166.515 98.2437 168.558 97.8604 170.419 97.0942C172.279 96.3276 173.867 95.1782 175.181 93.646L170.583 89.0483C169.78 89.9604 168.85 90.6538 167.791 91.1284C166.733 91.5659 165.548 91.7852 164.233 91.7852C162.811 91.7852 161.57 91.4932 160.512 90.9092C159.49 90.2891 158.688 89.4316 158.104 88.3369C157.92 87.957 157.768 87.5527 157.646 87.1235L176.713 87.0781C176.859 86.3848 176.95 85.7827 176.986 85.272C177.012 85.0811 177.032 84.895 177.049 84.7129C177.058 84.6226 177.064 84.5337 177.07 84.4458C177.079 84.3135 177.086 84.1836 177.09 84.0562L177.094 83.9155L177.096 83.7393C177.096 81.1484 176.513 78.8496 175.345 76.8428C174.214 74.8359 172.645 73.2671 170.638 72.1357C168.631 71.0049 166.313 70.439 163.687 70.439C160.986 70.439 158.56 71.041 156.407 72.2451C154.254 73.4492 152.539 75.1099 151.262 77.2261C150.021 79.3057 149.401 81.6777 149.401 84.3413C149.401 87.0049 150.04 89.395 151.316 91.5112C152.594 93.6274 154.346 95.2881 156.571 96.4922ZM157.648 81.375C157.689 81.2324 157.733 81.0928 157.78 80.9561C157.86 80.7256 157.949 80.5034 158.049 80.291C158.597 79.1963 159.345 78.3569 160.293 77.7734C161.278 77.1528 162.428 76.8428 163.741 76.8428C164.981 76.8428 166.021 77.1167 166.861 77.6641L166.974 77.7314L167.086 77.8032C167.181 77.8662 167.272 77.9326 167.361 78.002C167.448 78.0698 167.533 78.1411 167.615 78.2153C168.124 78.6763 168.529 79.2588 168.831 79.9629C169.015 80.375 169.163 80.8345 169.276 81.3418L157.648 81.375Z" fill="#35293B"/>
<path d="M191.812 98.2437C189.074 98.2437 186.593 97.6416 184.367 96.4375C182.142 95.2334 180.391 93.5728 179.113 91.4565C177.836 89.3403 177.197 86.9683 177.197 84.3413C177.197 81.6777 177.836 79.3057 179.113 77.2261C180.427 75.1099 182.196 73.4492 184.422 72.2451C186.648 71.041 189.147 70.439 191.921 70.439C194 70.439 195.897 70.8042 197.613 71.5337C198.487 71.8799 199.312 72.3169 200.086 72.8447C200.862 73.3745 201.589 73.9956 202.265 74.7085L196.901 80.0723C196.281 79.3789 195.551 78.8682 194.712 78.5396C194.333 78.3848 193.927 78.2666 193.491 78.1846C193.292 78.147 193.088 78.1172 192.878 78.0952C192.661 78.0723 192.438 78.0576 192.208 78.0513C192.113 78.0483 192.018 78.0469 191.921 78.0469C191.625 78.0469 191.337 78.0635 191.057 78.0962L190.906 78.1157L190.812 78.1294C190.715 78.1445 190.618 78.1621 190.522 78.1812C189.866 78.313 189.256 78.542 188.691 78.8682C187.779 79.3789 187.05 80.1084 186.502 81.0571C185.991 81.9697 185.735 83.0459 185.735 84.2866C185.735 85.5273 185.991 86.6221 186.502 87.5703C187.05 88.519 187.798 89.2671 188.746 89.8145C189.694 90.3618 190.753 90.6357 191.921 90.6357C193.016 90.6357 193.982 90.4531 194.821 90.0884C195.697 89.687 196.445 89.1396 197.065 88.4463L202.375 93.8101C200.988 95.2695 199.419 96.3823 197.668 97.1489C195.916 97.8784 193.964 98.2437 191.812 98.2437Z" fill="#35293B"/>
<path fill-rule="evenodd" clip-rule="evenodd" d="M244.155 98.189C241.711 98.189 239.521 97.5869 237.588 96.3823C235.69 95.1782 234.176 93.5366 233.045 91.4565C231.95 89.377 231.402 87.0049 231.402 84.3413C231.402 81.6777 231.95 79.3057 233.045 77.2261C234.176 75.146 235.69 73.5044 237.588 72.2998C239.521 71.0957 241.711 70.4937 244.155 70.4937C245.943 70.4937 247.549 70.8403 248.972 71.5337C249.929 71.9883 250.768 72.5605 251.489 73.25V71.041H259.699V97.6416H251.489V95.4863C250.996 95.9526 250.442 96.3657 249.828 96.7256C249.716 96.7915 249.601 96.856 249.484 96.9185C249.335 96.998 249.182 97.0747 249.026 97.1489C247.567 97.8423 245.943 98.189 244.155 98.189ZM245.853 90.6357C247.641 90.6357 249.081 90.0518 250.176 88.8843C251.271 87.6802 251.818 86.1655 251.818 84.3413C251.818 83.7207 251.754 83.1367 251.626 82.5894C251.498 82.042 251.307 81.5312 251.052 81.0571C250.577 80.1084 249.884 79.3789 248.972 78.8682C248.479 78.5601 247.94 78.3389 247.355 78.2041C246.9 78.0991 246.418 78.0469 245.907 78.0469C245.324 78.0469 244.772 78.1152 244.253 78.252C243.936 78.3354 243.63 78.4443 243.337 78.5786C243.149 78.6646 242.966 78.7612 242.787 78.8682C241.911 79.3789 241.2 80.1084 240.652 81.0571C240.142 82.0059 239.887 83.1006 239.887 84.3413C239.887 85.5454 240.142 86.6221 240.652 87.5703C241.163 88.519 241.875 89.2671 242.787 89.8145C243.699 90.3618 244.721 90.6357 245.853 90.6357Z" fill="#35293B"/>
<path d="M271.78 71.041H263.406V97.6416H271.78V83.0278C271.78 81.3125 272.182 80.0356 272.984 79.1963C273.824 78.3208 274.937 77.8828 276.323 77.8828C277.017 77.8828 277.637 77.9922 278.185 78.2114C278.731 78.4302 279.188 78.7402 279.553 79.1416L284.533 72.8472C283.804 72.0444 282.946 71.4609 281.961 71.0957C281.013 70.6943 279.899 70.4937 278.622 70.4937C275.703 70.4937 273.423 71.3516 271.78 73.0664V71.041Z" fill="#35293B"/>
<path fill-rule="evenodd" clip-rule="evenodd" d="M295.102 109.573C292.183 109.573 289.61 109.062 287.385 108.041C285.195 107.056 283.462 105.651 282.185 103.826L287.329 98.6812C288.278 99.8125 289.337 100.67 290.504 101.254C291.708 101.837 293.149 102.129 294.828 102.129C296.908 102.129 298.531 101.619 299.699 100.597C300.903 99.5752 301.506 98.1338 301.506 96.2729V94.5928C300.936 95.0488 300.297 95.4443 299.59 95.7803C298.13 96.4736 296.507 96.8203 294.719 96.8203C292.273 96.8203 290.103 96.2368 288.205 95.0688C286.308 93.9014 284.812 92.314 283.717 90.3071C282.622 88.3003 282.075 86.0747 282.075 83.6299C282.075 81.1484 282.622 78.9229 283.717 76.9521C284.812 74.9453 286.308 73.3765 288.205 72.2451C290.103 71.0776 292.273 70.4937 294.719 70.4937C296.543 70.4937 298.167 70.8403 299.59 71.5337C299.721 71.5923 299.849 71.6533 299.975 71.7168C300.596 72.0303 301.161 72.4009 301.67 72.8286V71.041H309.88V96.0542C309.88 98.791 309.241 101.163 307.964 103.169C306.687 105.176 304.936 106.745 302.71 107.876C300.483 109.008 297.948 109.573 295.102 109.573ZM296.306 89.377C297.474 89.377 298.477 89.1211 299.316 88.6104C299.531 88.4849 299.733 88.3491 299.922 88.2036C300.501 87.7578 300.956 87.2183 301.286 86.5854C301.428 86.3247 301.548 86.0547 301.646 85.7749C301.775 85.4121 301.869 85.0327 301.927 84.6372C301.975 84.3125 301.998 83.9766 301.998 83.6299C301.998 82.5352 301.761 81.5498 301.286 80.6743C300.849 79.7983 300.191 79.105 299.316 78.5942C298.477 78.0835 297.474 77.8281 296.306 77.8281C295.961 77.8281 295.629 77.8521 295.308 77.8994L295.14 77.9268L294.992 77.9541C294.674 78.0181 294.368 78.1064 294.075 78.2192C293.911 78.2822 293.751 78.353 293.596 78.4312C293.494 78.4824 293.395 78.5366 293.296 78.5942C292.42 79.105 291.745 79.7983 291.271 80.6743C291.023 81.1304 290.84 81.6162 290.722 82.1318C290.613 82.606 290.559 83.1055 290.559 83.6299C290.559 84.6514 290.796 85.6182 291.271 86.5308C291.745 87.4062 292.401 88.0996 293.241 88.6104C293.711 88.8848 294.224 89.0859 294.779 89.2129C295.257 89.3223 295.766 89.377 296.306 89.377Z" fill="#35293B"/>
<path fill-rule="evenodd" clip-rule="evenodd" d="M319.02 96.4922C321.281 97.6597 323.854 98.2437 326.736 98.2437C328.962 98.2437 331.006 97.8604 332.866 97.0942C334.728 96.3276 336.314 95.1782 337.628 93.646L333.03 89.0483C332.228 89.9604 331.298 90.6538 330.239 91.1284C329.182 91.5659 327.995 91.7852 326.682 91.7852C325.259 91.7852 324.018 91.4932 322.96 90.9092C322.23 90.4668 321.613 89.9033 321.107 89.2188C321.026 89.1099 320.949 88.9976 320.874 88.8823C320.76 88.708 320.652 88.5259 320.552 88.3369C320.368 87.957 320.215 87.5527 320.093 87.1235L339.161 87.0781C339.233 86.7358 339.292 86.4155 339.337 86.1177C339.384 85.812 339.416 85.5303 339.435 85.272C339.46 85.0791 339.481 84.8906 339.498 84.707C339.528 84.3691 339.544 84.0464 339.544 83.7393C339.544 81.1484 338.96 78.8496 337.793 76.8428C336.661 74.8359 335.093 73.2671 333.086 72.1357C331.078 71.0049 328.762 70.439 326.135 70.439C323.435 70.439 321.008 71.041 318.854 72.2451C316.702 73.4492 314.987 75.1099 313.71 77.2261C312.47 79.3057 311.849 81.6777 311.849 84.3413C311.849 87.0049 312.487 89.395 313.765 91.5112C315.042 93.6274 316.793 95.2881 319.02 96.4922ZM320.097 81.375C320.206 80.9912 320.339 80.6294 320.497 80.291C320.81 79.666 321.187 79.1245 321.63 78.6665C321.785 78.5059 321.949 78.3555 322.121 78.2153C322.317 78.0547 322.523 77.9072 322.741 77.7734C323.727 77.1528 324.876 76.8428 326.189 76.8428C327.43 76.8428 328.47 77.1167 329.309 77.6641C329.644 77.8594 329.946 78.0918 330.217 78.3618C330.654 78.7979 331.009 79.3315 331.279 79.9629C331.462 80.375 331.61 80.8345 331.724 81.3418L320.097 81.375Z" fill="#35293B"/>
</svg>
