<svg width="457" height="175" viewBox="0 0 457 175" fill="none" xmlns="http://www.w3.org/2000/svg">
<path d="M50.0391 99.9903L75.4125 88.6973L90.017 97.1671L92.9674 124.954L74.97 124.805L77.6253 105.488L74.5274 103.705L59.3328 115.593L50.0391 99.9903Z" fill="#B4C0D3"/>
<path d="M91.6406 95.9774L114.064 112.471L122.915 96.5718L104.917 89.2907V85.7245L122.915 78.2948L114.064 62.5439L91.6406 79.0378V95.9774Z" fill="#00D3AB"/>
<path d="M90.017 77.701L92.9674 49.9141L74.97 50.2112L77.6253 69.5284L74.5274 71.3115L59.1853 59.424L50.0391 74.8777L75.4125 86.1708L90.017 77.701Z" fill="#4876EF"/>
<path d="M182.958 84.1039V110.136H192.644V76.9604H178.538V84.1039H182.958Z" fill="#4876EE"/>
<path d="M182.655 72.299C183.543 73.2271 184.895 73.6911 186.711 73.6911C188.528 73.6911 189.859 73.2271 190.706 72.299C191.595 71.33 192.038 70.1191 192.038 68.6666C192.038 67.173 191.595 65.9622 190.706 65.0341C189.859 64.0656 188.528 63.5811 186.711 63.5811C184.895 63.5811 183.543 64.0656 182.655 65.0341C181.808 65.9622 181.384 67.173 181.384 68.6666C181.384 70.1191 181.808 71.33 182.655 72.299Z" fill="#4876EE"/>
<path d="M149.238 109.41C151.982 110.661 155.352 111.287 159.347 111.287C163.101 111.287 166.329 110.701 169.034 109.531C171.738 108.361 173.816 106.726 175.269 104.627C176.763 102.488 177.509 100.006 177.509 97.1806C177.509 94.4363 176.804 92.1155 175.391 90.2184C174.018 88.2813 172.102 86.7678 169.639 85.6784C167.177 84.548 164.332 83.8417 161.103 83.5594L157.713 83.2567C155.695 83.0949 154.242 82.5504 153.354 81.6219C152.466 80.6938 152.022 79.6038 152.022 78.3531C152.022 77.384 152.265 76.4964 152.748 75.6892C153.233 74.8415 153.959 74.1757 154.928 73.6911C155.937 73.2071 157.168 72.9648 158.621 72.9648C160.154 72.9648 161.426 73.2471 162.435 73.8125C162.657 73.9319 162.868 74.0596 163.066 74.1952L163.114 74.2288C163.188 74.28 163.261 74.3331 163.332 74.3867C163.945 74.8552 164.433 75.4103 164.796 76.0523C165.32 76.9404 165.584 77.929 165.584 79.0189H175.269C175.269 76.1128 174.603 73.5902 173.272 71.4513C171.94 69.272 170.023 67.5971 167.521 66.4263C165.058 65.2155 162.092 64.61 158.621 64.61C155.311 64.61 152.446 65.1755 150.024 66.3054C147.603 67.3953 145.706 68.9693 144.334 71.0273C143.001 73.0857 142.335 75.5278 142.335 78.3531C142.335 82.2677 143.648 85.4156 146.271 87.7973C148.894 90.1784 152.406 91.5506 156.805 91.9137L160.135 92.2164C162.838 92.4587 164.796 93.0037 166.007 93.8508C167.217 94.6581 167.823 95.768 167.823 97.1806C167.823 97.8299 167.717 98.4387 167.504 99.0075C167.346 99.4296 167.13 99.8298 166.855 100.208C166.208 101.055 165.26 101.721 164.009 102.206C162.758 102.69 161.204 102.932 159.347 102.932C157.289 102.932 155.614 102.65 154.323 102.084C153.031 101.479 152.063 100.692 151.416 99.7236C150.811 98.7545 150.509 97.7056 150.509 96.5752H140.883C140.883 99.4409 141.589 101.983 143.001 104.203C144.414 106.383 146.493 108.118 149.238 109.41Z" fill="#4876EE"/>
<path d="M214.256 110.56C210.906 110.56 208.202 110.156 206.144 109.349C204.085 108.501 202.572 107.109 201.603 105.172C200.675 103.194 200.211 100.531 200.211 97.1806V84.0435H195.186V76.9604H200.211V68.0007H209.231V76.9604H218.918V84.0435H209.231V97.5442C209.231 99.1182 209.635 100.329 210.442 101.176C211.289 101.983 212.48 102.387 214.014 102.387H218.918V110.56H214.256Z" fill="#4876EE"/>
<path fill-rule="evenodd" clip-rule="evenodd" d="M230.58 109.834C232.759 110.802 235.262 111.287 238.087 111.287C240.871 111.287 243.334 110.802 245.473 109.834C247.612 108.865 249.388 107.513 250.8 105.778C252.213 104.042 253.162 102.064 253.645 99.8445H244.746C244.343 100.853 243.576 101.701 242.446 102.387C241.316 103.073 239.862 103.416 238.087 103.416C236.987 103.416 236.004 103.286 235.138 103.026C234.479 102.828 233.888 102.555 233.365 102.206C232.154 101.398 231.266 100.268 230.701 98.8155C230.544 98.4016 230.41 97.9688 230.297 97.5179C230.182 97.0612 230.089 96.5859 230.019 96.0911H254.251V92.8219C254.251 89.7948 253.605 87.0101 252.314 84.4676C251.022 81.8841 249.145 79.8056 246.684 78.2317C244.262 76.6173 241.275 75.8101 237.723 75.8101C235.019 75.8101 232.597 76.2946 230.458 77.2631C228.361 78.1912 226.605 79.4625 225.192 81.0769C223.78 82.6913 222.69 84.528 221.922 86.5865C221.196 88.604 220.833 90.7229 220.833 92.9427V94.1536C220.833 96.2929 221.196 98.3914 221.922 100.45C222.69 102.468 223.78 104.304 225.192 105.959C226.645 107.573 228.44 108.865 230.58 109.834ZM230.186 90.1048C230.213 89.9766 230.241 89.8504 230.272 89.7261C230.356 89.3839 230.453 89.0559 230.563 88.7424C230.625 88.564 230.691 88.39 230.762 88.2209C231.367 86.7273 232.255 85.5974 233.425 84.8307C233.863 84.5441 234.337 84.3111 234.846 84.1317C235.702 83.8309 236.662 83.6803 237.723 83.6803C239.379 83.6803 240.75 84.0639 241.84 84.8307C242.97 85.557 243.818 86.6264 244.383 88.0391C244.429 88.1531 244.472 88.2691 244.514 88.3866C244.581 88.5738 244.643 88.7658 244.701 88.9628C244.786 89.2557 244.861 89.5589 244.927 89.8723C244.975 90.1034 245.016 90.3398 245.053 90.582H230.093C230.121 90.4202 230.152 90.2613 230.186 90.1048Z" fill="#4876EE"/>
<path d="M258.248 110.136V76.9604H265.937V85.3162C266.041 84.8195 266.16 84.3428 266.293 83.8855C266.407 83.5005 266.529 83.129 266.663 82.7722C267.511 80.5119 268.782 78.8171 270.477 77.6867C272.172 76.5164 274.25 75.9314 276.713 75.9314H277.136C279.639 75.9314 281.717 76.5164 283.372 77.6867C285.067 78.8171 286.339 80.5119 287.186 82.7722L287.253 82.9428L287.31 83.0988C287.348 82.9886 287.388 82.8799 287.428 82.7722C288.316 80.5119 289.608 78.8171 291.303 77.6867C292.998 76.5164 295.077 75.9314 297.539 75.9314H297.963C300.464 75.9314 302.563 76.5164 304.258 77.6867C305.994 78.8171 307.306 80.5119 308.193 82.7722C309.081 85.0325 309.526 87.8577 309.526 91.2479V110.136H299.839V90.7029C299.839 88.8867 299.355 87.4137 298.386 86.2838C297.458 85.1534 296.126 84.5884 294.391 84.5884C292.655 84.5884 291.283 85.1739 290.274 86.3442C289.265 87.4741 288.76 88.9876 288.76 90.8848V110.136H279.013V90.7029C279.013 88.8867 278.529 87.4137 277.56 86.2838C276.632 85.1534 275.32 84.5884 273.626 84.5884C271.849 84.5884 270.457 85.1739 269.448 86.3442C268.439 87.4741 267.934 88.9876 267.934 90.8848V110.136H258.248Z" fill="#4876EE"/>
<path fill-rule="evenodd" clip-rule="evenodd" d="M335.4 103.744V110.136H343.088V89.7948C343.088 86.7273 342.483 84.2253 341.272 82.2877C340.061 80.3101 338.286 78.8371 335.945 77.8685C333.645 76.9 330.799 76.4155 327.409 76.4155C326.674 76.4155 325.907 76.4233 325.107 76.4393C324.635 76.4491 324.15 76.4613 323.655 76.4759C322.323 76.5164 321.031 76.5768 319.781 76.6577L318.825 76.7221C318.334 76.7562 317.873 76.7898 317.439 76.8239C317.113 76.8493 316.804 76.8746 316.512 76.9V85.073C317.763 84.992 319.155 84.9111 320.689 84.8307C321.118 84.8083 321.543 84.7873 321.965 84.7678C322.575 84.7395 323.176 84.7152 323.771 84.6937C324.241 84.6767 324.707 84.6616 325.169 84.6489C326.621 84.6084 327.792 84.5884 328.68 84.5884C330.456 84.5884 331.747 85.012 332.555 85.8597C333.362 86.7074 333.765 87.9786 333.765 89.6739V89.7948H327.772C324.826 89.7948 322.223 90.1784 319.962 90.9452C317.702 91.6715 315.946 92.8219 314.696 94.3958C313.444 95.9298 312.819 97.9074 312.819 100.329C312.819 102.549 313.323 104.466 314.332 106.08C315.341 107.654 316.733 108.865 318.509 109.712C320.326 110.56 322.425 110.984 324.805 110.984C327.106 110.984 329.043 110.56 330.618 109.712C332.232 108.865 333.483 107.654 334.371 106.08C334.527 105.815 334.673 105.54 334.809 105.254C335.001 104.85 335.172 104.424 335.323 103.979L335.4 103.744ZM333.765 97.8469V95.183H327.711C326.016 95.183 324.705 95.6066 323.777 96.4543C322.889 97.2615 322.444 98.3714 322.444 99.784C322.444 100.449 322.555 101.053 322.776 101.598C322.999 102.144 323.332 102.629 323.777 103.053C324.705 103.861 326.016 104.264 327.711 104.264C328.034 104.264 328.346 104.248 328.647 104.216C328.893 104.191 329.132 104.154 329.363 104.107C329.807 104.016 330.226 103.887 330.618 103.719C331.506 103.316 332.232 102.65 332.796 101.721C333.362 100.793 333.685 99.5013 333.765 97.8469Z" fill="#4876EE"/>
<path d="M348.885 110.136V76.9604H356.574V87.9109C356.942 84.7849 357.871 82.2643 359.359 80.3506C361.377 77.8081 364.282 76.5368 368.077 76.5368H369.348V84.8911H366.926C364.263 84.8911 362.204 85.6174 360.751 87.0705C359.298 88.4831 358.571 90.5416 358.571 93.2454V110.136H348.885Z" fill="#4876EE"/>
<path d="M381.631 94.6381H384.84L395.313 110.136H406.21L392.93 91.1026L403.849 76.9604H393.679L381.631 92.7351V65.9422H371.945V110.136H381.631V94.6381Z" fill="#4876EE"/>
</svg>
