<svg width="522" height="187" viewBox="0 0 522 187" fill="none" xmlns="http://www.w3.org/2000/svg">
<rect width="520.633" height="187" transform="translate(0.936523)" fill="white"/>
<path d="M393.104 54V132H404.52V54H393.104Z" fill="black"/>
<path fill-rule="evenodd" clip-rule="evenodd" d="M289.879 133.259C285.374 133.259 281.611 132.21 278.589 130.111C278.258 129.882 277.937 129.643 277.624 129.395V132H267.551V55.2591H279.051V88.1348C281.872 86.3209 285.285 85.4139 289.291 85.4139C293.628 85.4139 297.405 86.4492 300.623 88.5196C303.841 90.5901 306.331 93.4301 308.093 97.0395C309.884 100.621 310.779 104.72 310.779 109.336C310.779 113.869 309.898 117.94 308.135 121.55C306.401 125.159 303.966 128.013 300.833 130.111C297.699 132.21 294.048 133.259 289.879 133.259ZM278.631 102.118C277.959 104.188 277.624 106.594 277.624 109.336C277.624 112.078 277.959 114.485 278.631 116.555C279.302 118.626 280.394 120.234 281.904 121.382C283.443 122.529 285.486 123.102 288.032 123.102C290.494 123.102 292.509 122.487 294.076 121.256C295.643 120.025 296.804 118.374 297.559 116.303C298.315 114.205 298.692 111.883 298.692 109.336C298.692 106.818 298.301 104.524 297.517 102.454C296.734 100.355 295.517 98.6902 293.866 97.4591C292.243 96.2001 290.158 95.5705 287.612 95.5705C285.234 95.5705 283.303 96.1441 281.821 97.2913C280.366 98.4384 279.302 100.047 278.631 102.118Z" fill="black"/>
<path d="M249.503 105.223V132H260.918V102.202C260.918 97.2493 259.589 93.2482 256.931 90.1984C254.301 87.1207 250.398 85.5818 245.222 85.5818C242.2 85.5818 239.444 86.2533 236.954 87.5963C234.674 88.814 232.814 90.4874 231.374 92.6167C230.3 90.6843 228.816 89.0948 226.923 87.8481C224.657 86.3372 221.747 85.5818 218.194 85.5818C215.088 85.5818 212.276 86.2673 209.758 87.6383C207.855 88.686 206.246 90.0196 204.931 91.6391V86.673H194.859V132H206.358V104.552C206.358 101.95 207.072 99.8374 208.499 98.2146C209.954 96.5638 211.87 95.7384 214.248 95.7384C216.739 95.7384 218.683 96.5778 220.082 98.2566C221.509 99.9074 222.223 102.23 222.223 105.223V132H233.638V104.552C233.638 102.817 233.96 101.292 234.604 99.9773C235.275 98.6343 236.198 97.599 237.374 96.8716C238.549 96.1161 239.934 95.7384 241.529 95.7384C244.019 95.7384 245.963 96.5778 247.362 98.2566C248.789 99.9074 249.503 102.23 249.503 105.223Z" fill="black"/>
<path d="M153.96 131.538C156.198 132.741 159.094 133.343 162.648 133.343C167.096 133.343 170.776 132.378 173.686 130.447C175.067 129.54 176.284 128.499 177.337 127.326V132H187.41V86.673H175.91V109.672C175.91 112.47 175.588 114.736 174.945 116.471C174.329 118.178 173.532 119.479 172.552 120.374C171.573 121.242 170.524 121.829 169.405 122.137C168.286 122.445 167.236 122.599 166.257 122.599C163.823 122.599 161.934 122.053 160.591 120.962C159.276 119.871 158.325 118.514 157.737 116.891C157.15 115.268 156.8 113.659 156.688 112.064C156.576 110.442 156.52 109.113 156.52 108.077V86.673H144.937V112.106C144.937 112.862 144.992 114.065 145.104 115.716C145.216 117.367 145.538 119.199 146.07 121.214C146.601 123.2 147.483 125.117 148.714 126.964C149.973 128.81 151.722 130.335 153.96 131.538Z" fill="black"/>
<path d="M315.818 86.673V132H327.317V108.833C327.317 107.098 327.555 105.545 328.031 104.174C328.507 102.775 329.206 101.572 330.129 100.565C331.053 99.5296 332.186 98.7042 333.529 98.0887C334.872 97.4452 336.369 97.0674 338.02 96.9555C339.698 96.8156 341.167 96.9415 342.426 97.3332V86.673C341.055 86.5051 339.684 86.4771 338.313 86.5891C336.942 86.673 335.613 86.9108 334.326 87.3025C333.039 87.6663 331.85 88.1839 330.759 88.8554C329.332 89.6948 328.129 90.758 327.15 92.0451C326.686 92.6544 326.266 93.295 325.89 93.967V86.673H315.818Z" fill="black"/>
<path fill-rule="evenodd" clip-rule="evenodd" d="M366.462 133.259C361.817 133.259 357.718 132.266 354.165 130.279C350.639 128.265 347.869 125.509 345.855 122.011C343.868 118.486 342.875 114.457 342.875 109.924C342.875 104.972 343.854 100.663 345.813 96.9975C347.771 93.3321 350.471 90.4922 353.913 88.4777C357.354 86.4352 361.314 85.4139 365.79 85.4139C370.547 85.4139 374.59 86.5331 377.919 88.7715C381.249 91.0098 383.711 94.1575 385.306 98.2146C386.901 102.272 387.461 107.042 386.985 112.526H355.158C355.514 115.247 356.359 117.457 357.69 119.157C359.537 121.452 362.237 122.599 365.79 122.599C368.029 122.599 369.945 122.109 371.54 121.13C373.135 120.151 374.352 118.738 375.191 116.891L386.607 120.165C384.9 124.306 382.2 127.523 378.507 129.817C374.842 132.112 370.827 133.259 366.462 133.259ZM373.471 98.3825C374.446 99.7079 375.101 101.597 375.435 104.048H355.458C355.903 101.955 356.647 100.234 357.69 98.8861C359.537 96.5078 362.405 95.3187 366.294 95.3187C369.624 95.3187 372.016 96.34 373.471 98.3825Z" fill="black"/>
<path d="M413.744 132V54H425.16V132H413.744Z" fill="black"/>
<path fill-rule="evenodd" clip-rule="evenodd" d="M437.868 131.412C440.135 132.643 442.891 133.259 446.136 133.259C450.053 133.259 453.285 132.587 455.831 131.244C457.861 130.163 459.777 128.561 461.581 126.436V132H471.57V104.3C471.57 102.23 471.486 100.355 471.318 98.6763C471.15 96.9975 470.618 95.3187 469.723 93.6399C468.128 90.6181 465.778 88.4917 462.672 87.2606C459.566 86.0295 456.013 85.4139 452.012 85.4139C446.556 85.4139 442.247 86.5891 439.085 88.9394C435.924 91.2896 433.769 94.3394 432.622 98.0887L442.947 101.362C443.674 99.2918 444.947 97.8509 446.766 97.0395C448.584 96.228 450.333 95.8223 452.012 95.8223C455.034 95.8223 457.188 96.4519 458.475 97.711C459.486 98.6997 460.1 100.128 460.317 101.997C458.384 102.29 456.553 102.568 454.824 102.831C451.886 103.251 449.256 103.699 446.934 104.174C444.611 104.65 442.611 105.196 440.932 105.811C438.498 106.706 436.553 107.826 435.098 109.169C433.671 110.484 432.636 112.008 431.992 113.743C431.349 115.478 431.027 117.395 431.027 119.493C431.027 122.011 431.601 124.319 432.748 126.418C433.923 128.488 435.63 130.153 437.868 131.412ZM453.859 123.186C452.432 123.914 450.669 124.278 448.57 124.278C447.255 124.278 446.122 124.082 445.171 123.69C444.22 123.298 443.478 122.739 442.947 122.011C442.443 121.256 442.191 120.36 442.191 119.325C442.191 118.57 442.345 117.884 442.653 117.269C442.988 116.653 443.492 116.094 444.164 115.59C444.863 115.058 445.772 114.569 446.892 114.121C447.871 113.757 449.004 113.421 450.291 113.114C451.578 112.806 453.271 112.47 455.369 112.106C456.718 111.855 458.332 111.568 460.212 111.247C460.186 112.045 460.138 112.947 460.07 113.953C459.986 115.576 459.65 117.003 459.063 118.234C458.755 118.877 458.167 119.675 457.3 120.626C456.461 121.577 455.314 122.431 453.859 123.186Z" fill="black"/>
<path fill-rule="evenodd" clip-rule="evenodd" d="M81.9365 87H50.9365V100.5C50.9365 120.658 67.2781 137 87.4365 137C107.595 137 123.937 120.658 123.937 100.5V87H91.9365L91.9365 65.5C91.9365 56.9396 84.9969 50 76.4365 50C67.8761 50 60.9365 56.9396 60.9365 65.5L70.9365 65.5C70.9365 62.4624 73.399 60 76.4365 60C79.4741 60 81.9365 62.4624 81.9365 65.5L81.9365 87ZM81.9365 97L81.9365 116L91.9365 116L91.9365 97H113.937V100.5C113.937 115.136 102.072 127 87.4365 127C72.801 127 60.9365 115.136 60.9365 100.5V97H81.9365Z" fill="#EE1B23"/>
</svg>
